<?xml version="1.0" encoding="UTF-8"?>
<svg version="1.1" xmlns="http://www.w3.org/2000/svg" viewBox="1000 1820 2510 820" width="2510" height="820">
<path d="M0 0 C5.50414842 3.96903188 10.30116507 8.74650118 15.15966797 13.46630859 C17.01844302 15.25216745 18.93679766 16.95570508 20.890625 18.63671875 C24.04265727 21.35678086 27.12754028 24.14290547 30.203125 26.94921875 C33.32219511 29.79446103 36.45067891 32.62121455 39.640625 35.38671875 C43.0500108 38.34805385 46.3810681 41.39074361 49.703125 44.44921875 C53.66174686 48.09336204 57.6548926 51.68835592 61.71875 55.21484375 C66.6284722 59.50601827 71.44187318 63.90723983 76.28125 68.27734375 C80.02440109 71.65306897 83.77108972 75.0205931 87.578125 78.32421875 C91.54409576 81.77637953 95.40830146 85.33672756 99.27636719 88.89746094 C102.7133692 92.0561984 106.19333821 95.15560211 109.71875 98.21484375 C113.75687191 101.74422589 117.72227181 105.35556101 121.703125 108.94921875 C123.36953351 110.44950554 125.03619853 111.94950747 126.703125 113.44921875 C129.22812993 115.72093165 131.75225804 117.99357289 134.2734375 120.26953125 C138.04049615 123.66794807 141.81228086 127.05738485 145.640625 130.38671875 C149.83754581 134.04100737 153.9396526 137.79666848 158.05078125 141.546875 C160.22773496 143.51863719 162.42151174 145.46287212 164.640625 147.38671875 C168.0500108 150.34805385 171.3810681 153.39074361 174.703125 156.44921875 C178.66174686 160.09336204 182.6548926 163.68835592 186.71875 167.21484375 C191.6284722 171.50601827 196.44187318 175.90723983 201.28125 180.27734375 C205.08962417 183.71188978 208.90279447 187.13843506 212.765625 190.51171875 C213.40628906 191.07632813 214.04695313 191.6409375 214.70703125 192.22265625 C216.08998969 193.41887471 217.49552911 194.58929121 218.91796875 195.73828125 C229.41790384 204.46130425 236.54556489 215.68624766 237.95903969 229.43924904 C238.42523552 236.72698439 238.45870136 244.02808139 238.53125 251.328125 C238.56917093 253.77378637 238.60860787 256.21942464 238.64944458 258.66503906 C238.74303745 264.56683969 238.81823075 270.46869495 238.88346946 276.37086117 C238.93659848 281.15699675 238.99708874 285.94298795 239.06231689 290.72897339 C239.32068559 309.77663715 239.52014678 328.82450168 239.68501854 347.87319183 C239.70295002 349.92915659 239.72131214 351.98511704 239.73982239 354.04107666 C239.89849178 371.69854177 240.00914208 389.35559531 240.06468201 407.01368332 C240.07805051 410.49233485 240.09823373 413.97088668 240.12023926 417.44949341 C240.15350954 422.91679777 240.16570687 428.38376525 240.16176987 433.85116577 C240.16326288 435.83052244 240.17128387 437.80988841 240.18683243 439.78918457 C240.44098396 474.49509876 227.30031215 508.74280206 202.93359375 533.796875 C201.13261085 535.60122079 199.31093167 537.37741742 197.4765625 539.1484375 C195.39974051 541.2457352 193.48829149 543.33554038 191.57666016 545.57348633 C187.56638946 550.17542612 183.29098908 554.47041574 178.953125 558.76171875 C177.72770996 559.98145386 177.72770996 559.98145386 176.47753906 561.22583008 C173.01617458 564.67099215 169.54883909 568.11012165 166.08203125 571.54980469 C163.53697312 574.07668383 160.99499369 576.6066319 158.453125 579.13671875 C157.68000977 579.90153564 156.90689453 580.66635254 156.11035156 581.4543457 C152.05850974 585.48804363 148.21187658 589.61462425 144.48168945 593.94580078 C141.20598106 597.63563785 137.67884927 601.07473311 134.171875 604.54296875 C132.97975403 605.72940979 132.97975403 605.72940979 131.7635498 606.93981934 C128.39776952 610.28940448 125.02601452 613.63295145 121.65478516 616.97705078 C119.17922273 619.43442814 116.70674417 621.89487933 114.234375 624.35546875 C113.48313354 625.09841187 112.73189209 625.84135498 111.95788574 626.60681152 C108.58644583 629.96273316 105.30889939 633.34480376 102.203125 636.94921875 C98.40066239 641.36217717 94.31201543 645.44856101 90.171875 649.54296875 C88.97975403 650.72940979 88.97975403 650.72940979 87.7635498 651.93981934 C84.39776952 655.28940448 81.02601452 658.63295145 77.65478516 661.97705078 C75.17922273 664.43442814 72.70674417 666.89487933 70.234375 669.35546875 C69.48313354 670.09841187 68.73189209 670.84135498 67.95788574 671.60681152 C64.59096307 674.95823671 61.31754629 678.33521996 58.21679688 681.93554688 C54.34308205 686.43110866 50.17009511 690.59001208 45.953125 694.76171875 C44.72770996 695.98145386 44.72770996 695.98145386 43.47753906 697.22583008 C40.01617458 700.67099215 36.54883909 704.11012165 33.08203125 707.54980469 C30.53697312 710.07668383 27.99499369 712.6066319 25.453125 715.13671875 C24.68000977 715.90153564 23.90689453 716.66635254 23.11035156 717.4543457 C18.95216357 721.59391359 14.9685419 725.81855321 11.15144348 730.27557373 C4.79823181 737.61720556 -2.08321676 742.76757426 -11.80078125 744.359375 C-19.60825178 744.83588729 -25.87024958 741.77748214 -31.82243729 736.86467361 C-34.53565897 734.31587376 -37.15593076 731.69758178 -39.76025391 729.03759766 C-40.76242846 728.03236874 -41.76572198 727.02825436 -42.77003479 726.02516174 C-45.4732677 723.31911245 -48.16092919 720.59807101 -50.84605837 717.87407351 C-53.67163487 715.01326846 -56.51201596 712.16723897 -59.35092163 709.31967163 C-64.72356021 703.92638866 -70.08375611 698.52092276 -75.43913782 693.11050928 C-83.28636355 685.18365223 -91.15106933 677.27416821 -99.01717186 669.36604881 C-100.18286515 668.19409562 -101.34855843 667.02214242 -102.51425171 665.85018921 C-103.08390573 665.27753747 -103.65355975 664.70488574 -104.24047601 664.11488092 C-107.60565077 660.73113538 -110.96684299 657.34349729 -114.3244822 653.95227456 C-116.42006357 651.83635369 -118.51766209 649.72243969 -120.61559868 647.60885429 C-122.03760478 646.17477359 -123.45689927 644.73800565 -124.87608337 643.3011322 C-129.21421214 638.93359789 -133.61111331 634.74174562 -138.28113937 630.73296356 C-142.32903794 627.15093724 -146.11154015 623.29072243 -149.93481445 619.47241211 C-150.86440979 618.54778168 -151.79400513 617.62315125 -152.75177002 616.67050171 C-155.28131337 614.15396142 -157.80761964 611.63419728 -160.33290124 609.11338115 C-161.91790101 607.53133216 -163.50347786 605.94986369 -165.08922386 604.3685627 C-170.07152822 599.39990221 -175.05184734 594.42926457 -180.02927238 589.45571607 C-185.73590507 583.75355483 -191.4490012 578.05797738 -197.16788512 572.36810392 C-201.61431988 567.94342816 -206.0548345 563.51286576 -210.49106759 559.07796198 C-213.12857182 556.44149578 -215.76834534 553.80741246 -218.41436195 551.17948723 C-248.95674705 520.83383446 -272.23594039 487.05026794 -272.62036133 442.43017578 C-272.59341835 432.66723966 -272.31380527 422.94319446 -271.82250977 413.19458008 C-271.31322264 402.77561937 -270.95787543 392.35621061 -270.6484375 381.9296875 C-270.59114497 380.04696531 -270.53363838 378.16424962 -270.47593689 376.28153992 C-270.38491489 373.31040137 -270.29403614 370.33925909 -270.20380688 367.36809635 C-269.78633534 353.623585 -269.34498128 339.8798259 -268.90605164 326.13598633 C-268.8372452 323.97949298 -268.76846359 321.82299884 -268.69970703 319.66650391 C-268.66583924 318.6044939 -268.63197145 317.5424839 -268.59707737 316.44829178 C-268.36870955 309.26566515 -268.14735707 302.08284557 -267.92919922 294.89990234 C-267.67345089 286.48752067 -267.40478343 278.07566623 -267.11993027 269.66421795 C-266.97393739 265.34255934 -266.83394554 261.02091618 -266.70953369 256.69857788 C-266.59342001 252.66972978 -266.46043294 248.64178438 -266.31472969 244.61390114 C-266.26495445 243.15870585 -266.22109397 241.7032923 -266.18406487 240.2477169 C-265.74365554 223.24698243 -261.27046076 209.69501926 -249.1015625 197.7109375 C-245.91619122 194.69387806 -242.62387923 191.80824143 -239.296875 188.94921875 C-237.92183869 187.74092674 -236.54683258 186.53260036 -235.171875 185.32421875 C-234.56085938 184.79570313 -233.94984375 184.2671875 -233.3203125 183.72265625 C-230.78186329 181.49783783 -228.29045724 179.22418556 -225.796875 176.94921875 C-222.67780489 174.10397647 -219.54932109 171.27722295 -216.359375 168.51171875 C-212.9499892 165.55038365 -209.6189319 162.50769389 -206.296875 159.44921875 C-202.33825314 155.80507546 -198.3451074 152.21008158 -194.28125 148.68359375 C-190.24314238 145.1542241 -186.27713311 141.54351244 -182.296875 137.94921875 C-172.8046875 129.3774858 -172.8046875 129.3774858 -168.421875 125.57421875 C-164.99355308 122.59005189 -161.64066699 119.52733391 -158.296875 116.44921875 C-154.33822851 112.80510159 -150.34510812 109.2100822 -146.28125 105.68359375 C-142.24314238 102.1542241 -138.27713311 98.54351244 -134.296875 94.94921875 C-124.8046875 86.3774858 -124.8046875 86.3774858 -120.421875 82.57421875 C-116.99355308 79.59005189 -113.64066699 76.52733391 -110.296875 73.44921875 C-106.33822851 69.80510159 -102.34510812 66.2100822 -98.28125 62.68359375 C-94.24312809 59.15421161 -90.27772819 55.54287649 -86.296875 51.94921875 C-83.79999508 49.70124898 -81.30234349 47.45413868 -78.8046875 45.20703125 C-77.11094606 43.68213631 -75.41826331 42.15606473 -73.7265625 40.62890625 C-69.95950385 37.23048943 -66.18771914 33.84105265 -62.359375 30.51171875 C-59.13127988 27.7009935 -55.95949057 24.83341975 -52.796875 21.94921875 C-49.01059913 18.49626015 -45.20261389 15.07836195 -41.31640625 11.73828125 C-39.82268047 10.41501934 -38.36699244 9.04853911 -36.93359375 7.66015625 C-26.58350404 -2.22313315 -13.52603125 -7.61384662 0 0 Z " fill="#ffffff" transform="translate(1302.296875,1859.05078125)"/>
<path d="M0 0 C20.79 0 41.58 0 63 0 C79.20629371 24.84965035 79.20629371 24.84965035 86.2578125 35.76171875 C89.32988392 40.51344353 92.41489027 45.2567341 95.5 50 C101.79379454 59.67763466 108.06658442 69.36873563 114.33398438 79.06347656 C119.71239512 87.3823469 125.09933164 95.6955585 130.5 104 C136.79373087 113.67767622 143.06658429 123.36873543 149.33398438 133.06347656 C154.71239512 141.3823469 160.09933164 149.6955585 165.5 158 C171.79373087 167.67767622 178.06658429 177.36873543 184.33398438 187.06347656 C189.71239512 195.3823469 195.09933164 203.6955585 200.5 212 C206.79373087 221.67767622 213.06658429 231.36873543 219.33398438 241.06347656 C224.71239512 249.3823469 230.09933164 257.6955585 235.5 266 C241.79373087 275.67767622 248.06658429 285.36873543 254.33398438 295.06347656 C260.26461534 304.23647438 266.2081306 313.40095161 272.16357422 322.55786133 C276.05883911 328.54840269 279.94407263 334.54534161 283.82275391 340.54663086 C286.34184821 344.44265276 288.86704929 348.33460883 291.3984375 352.22265625 C291.97658203 353.11082031 292.55472656 353.99898437 293.15039062 354.9140625 C294.26563755 356.62671803 295.38148238 358.33898442 296.49804688 360.05078125 C297.01173828 360.8396875 297.52542969 361.62859375 298.0546875 362.44140625 C298.50312012 363.12920166 298.95155273 363.81699707 299.41357422 364.52563477 C301.63964578 367.99766236 303.81409198 371.50254717 306 375 C306.33 251.25 306.66 127.5 307 0 C325.81 0 344.62 0 364 0 C364 153.78 364 307.56 364 466 C343.21 466 322.42 466 301 466 C289.53538603 448.80307904 289.53538603 448.80307904 284.6875 441.3125 C283.5820702 439.60804765 282.47660024 437.90362136 281.37109375 436.19921875 C280.81663574 435.34376465 280.26217773 434.48831055 279.69091797 433.60693359 C277.99544428 430.99297632 276.29708437 428.38091908 274.59765625 425.76953125 C269.16136373 417.41589586 263.74203231 409.05236423 258.359375 400.6640625 C253.83521735 393.62691954 249.2611262 386.62192311 244.69824219 379.60986328 C235.66761229 365.73156633 226.65530669 351.8416274 217.66601562 337.93652344 C211.73538466 328.76352562 205.7918694 319.59904839 199.83642578 310.44213867 C195.93828168 304.44716935 192.05055682 298.44555334 188.16845703 292.44018555 C184.58017363 286.89140757 180.97858774 281.35134782 177.375 275.8125 C173.73535844 270.21760914 170.10431682 264.61771724 166.5 259 C160.70773295 249.97336485 154.85004272 240.98925328 149 232 C142.42917964 221.90319022 135.86528905 211.80284097 129.359375 201.6640625 C124.27394911 193.75388965 119.12930136 185.88175254 114 178 C107.42917964 167.90319022 100.86528905 157.80284097 94.359375 147.6640625 C89.27394911 139.75388965 84.12930136 131.88175254 79 124 C76.74956396 120.54195011 74.49963846 117.0835688 72.25 113.625 C71.5089502 112.48683838 71.5089502 112.48683838 70.75292969 111.32568359 C66.14067076 104.23467619 61.57454282 97.11595549 57 90 C56.67 214.08 56.34 338.16 56 466 C37.52 466 19.04 466 0 466 C0 312.22 0 158.44 0 0 Z " fill="#ffffff" transform="translate(2241,1946)"/>
<path d="M0 0 C1.83664723 -0.00599851 3.67329196 -0.01280704 5.50993347 -0.02035522 C10.46091779 -0.03789262 15.4118328 -0.04270552 20.36284518 -0.0439868 C23.46907234 -0.04541648 26.57528234 -0.04970153 29.6815052 -0.05498123 C40.55558499 -0.07344434 51.429616 -0.08165694 62.30371094 -0.08007812 C72.37834357 -0.07887928 82.45276111 -0.09994072 92.5273394 -0.13156545 C101.22600844 -0.15788045 109.92460791 -0.16843902 118.62331635 -0.16716731 C123.79666326 -0.16666192 128.96981891 -0.17210661 134.14312553 -0.19352341 C161.42053567 -0.29846601 187.07841863 -0.33852289 212.33422852 11.29052734 C213.36805664 11.75201172 214.40188477 12.21349609 215.46704102 12.68896484 C223.27943955 16.53952025 229.22978918 22.19507834 235.33422852 28.29052734 C235.93106445 28.87576172 236.52790039 29.46099609 237.14282227 30.06396484 C253.78801717 47.83688298 258.49279956 73.98018505 258.47467041 97.39997864 C258.47912709 99.20934569 258.47912709 99.20934569 258.48367381 101.05526561 C258.49082349 104.38679242 258.49353074 107.71826763 258.49427128 111.04979837 C258.49613018 114.64992428 258.50368185 118.2500392 258.51040649 121.85015869 C258.52395853 129.71641077 258.53001013 137.58265773 258.53441715 145.44891953 C258.53718584 150.36853724 258.54142442 155.288153 258.54592133 160.20776939 C258.55811173 173.85021879 258.56841031 187.49266663 258.57179642 201.13512135 C258.57201598 202.00744124 258.57223555 202.87976113 258.57246177 203.77851496 C258.57268005 204.65283599 258.57289832 205.52715701 258.57312322 206.42797261 C258.57356667 208.19945896 258.57401323 209.9709453 258.57446289 211.74243164 C258.57468432 212.62113632 258.57490575 213.49984099 258.57513389 214.40517309 C258.57907611 228.62144397 258.59651353 242.83766342 258.61982241 257.05391447 C258.64360429 271.67775199 258.65600143 286.30156378 258.65716434 300.92542094 C258.65807746 309.1246389 258.66373741 317.32378989 258.68198395 325.52298927 C258.69747777 332.509529 258.70245135 339.49598107 258.69424585 346.48253474 C258.69037138 350.03935326 258.69110927 353.59599577 258.70530319 357.15279198 C258.84550918 394.44660547 258.84550918 394.44660547 252.02172852 411.35302734 C251.56334595 412.53529907 251.56334595 412.53529907 251.09570312 413.74145508 C242.88568187 434.34211283 228.09946201 448.72107461 208.07250977 457.76318359 C189.95961689 465.04844309 172.89452428 466.44341628 153.63500977 466.41992188 C151.75963304 466.42127898 149.88425658 466.42306065 148.00888062 466.42523193 C142.94283259 466.42976946 137.87680505 466.4280319 132.81075668 466.42485285 C127.49346616 466.42231018 122.17617732 466.42467209 116.85888672 466.42623901 C107.93171882 466.42805515 99.00455921 466.42566898 90.07739258 466.42089844 C79.77601997 466.41545689 69.47466715 466.41721994 59.17329502 466.42272484 C50.30758019 466.42727181 41.44187129 466.42789877 32.57615566 466.42528617 C27.29031996 466.42373212 22.00449354 466.42350569 16.71865845 466.42682266 C11.74785059 466.42972441 6.7770681 466.42768354 1.80626297 466.42192841 C-0.01131524 466.42061313 -1.8288956 466.42097383 -3.64647293 466.42319107 C-29.40485708 466.45170153 -55.60783347 463.10646031 -75.66577148 445.29052734 C-76.63256836 444.51837891 -77.59936523 443.74623047 -78.59545898 442.95068359 C-88.29816061 434.86029133 -94.00403243 423.77037137 -98.66577148 412.29052734 C-99.06538086 411.34048828 -99.46499023 410.39044922 -99.87670898 409.41162109 C-106.68564612 391.41657296 -106.10615399 371.34391325 -106.0286274 352.42704785 C-106.01754591 348.89545266 -106.02417086 345.36387936 -106.02841187 341.83227539 C-106.0339944 334.94692579 -106.02382998 328.0616893 -106.0081239 321.17635893 C-105.99044277 313.13978533 -105.98916172 305.10323259 -105.98850831 297.06664259 C-105.98682706 282.7233593 -105.9710921 268.38012698 -105.94702148 254.03686523 C-105.92373103 240.14818905 -105.90959031 226.25954516 -105.90600586 212.37084961 C-105.90578309 211.51393593 -105.90556032 210.65702225 -105.90533081 209.77414148 C-105.90488817 208.04760769 -105.90444615 206.32107389 -105.90400474 204.59454009 C-105.90378517 203.74266947 -105.90356561 202.89079886 -105.90333939 202.01311398 C-105.9031234 201.16326201 -105.90290741 200.31341005 -105.90268488 199.43780499 C-105.89897847 186.15278484 -105.88762295 172.86776982 -105.87520899 159.58275534 C-105.87078822 154.78419322 -105.86734406 149.98563157 -105.86458686 145.18706822 C-105.86014144 137.58048763 -105.85232019 129.97392608 -105.83781245 122.36735748 C-105.83124126 118.89643986 -105.82614535 115.42553882 -105.82535172 111.95461464 C-105.82359395 108.1829705 -105.81567989 104.41138684 -105.80621338 100.63975525 C-105.80707986 99.55676791 -105.80794634 98.47378056 -105.80883908 97.35797542 C-105.77002257 87.00382623 -105.23973341 76.92878171 -102.47827148 66.91552734 C-102.2583252 66.10607666 -102.03837891 65.29662598 -101.81176758 64.46264648 C-98.58652296 53.01607929 -94.16647845 42.62782716 -86.66577148 33.29052734 C-85.99803711 32.45908203 -85.33030273 31.62763672 -84.64233398 30.77099609 C-73.06816363 17.17030133 -58.52591529 9.29857056 -41.60327148 4.47802734 C-40.92055176 4.28305664 -40.23783203 4.08808594 -39.53442383 3.88720703 C-26.43458695 0.41879353 -13.44697901 -0.00886078 0 0 Z M-39.54077148 65.16552734 C-47.89503016 75.54446518 -48.9707636 86.6009309 -48.9264679 99.5871582 C-48.93029344 100.78921119 -48.93411899 101.99126417 -48.93806046 103.229743 C-48.94654898 106.53998295 -48.94617403 109.84999895 -48.94187987 113.16023207 C-48.93940181 116.74038815 -48.94844005 120.3205187 -48.95591736 123.90066528 C-48.96863561 130.9037922 -48.97046172 137.90688073 -48.9681171 144.91001725 C-48.96633088 150.60382402 -48.96809006 156.29761918 -48.97234154 161.99142456 C-48.97293673 162.80313864 -48.97353192 163.61485271 -48.97414514 164.45116419 C-48.97535694 166.10036953 -48.97657107 167.74957488 -48.97778752 169.39878023 C-48.98865157 184.84760626 -48.98650569 200.29641045 -48.98040267 215.74523771 C-48.97523213 229.86723414 -48.9864946 243.98916163 -49.00550089 258.11114442 C-49.02488778 272.62765512 -49.03313395 287.14413321 -49.02937764 301.66065693 C-49.02746719 309.80422041 -49.02993807 317.94772518 -49.04409218 326.09127808 C-49.05601764 333.02240462 -49.05739766 339.95343629 -49.04530201 346.88456416 C-49.03942206 350.41799913 -49.03828933 353.95126067 -49.05030441 357.48468399 C-49.06319811 361.32117361 -49.05267807 365.1574018 -49.03999329 368.99389648 C-49.04736757 370.10188567 -49.05474186 371.20987486 -49.0623396 372.35143948 C-48.98426922 383.59486978 -45.97261944 395.28625009 -38.24389648 403.85302734 C-25.92447498 415.07467862 -9.55643555 415.89163822 6.18652344 415.79223633 C7.92294246 415.79602971 9.65935844 415.80153808 11.39576721 415.80860901 C16.06508873 415.82244494 20.73403687 415.8114796 25.40333724 415.79489779 C30.31441063 415.78093611 35.22546477 415.78751968 40.1365509 415.79103088 C48.37657615 415.79372352 56.61645493 415.78033659 64.85644531 415.75708008 C74.35701547 415.73044984 83.85734136 415.72873525 93.35793608 415.74046844 C102.53578297 415.75127807 111.71354226 415.74503591 120.89138222 415.73091316 C124.7806336 415.72518361 128.66982024 415.72521195 132.55907249 415.72997856 C137.14344671 415.73478008 141.72755617 415.72451637 146.31188011 415.70302391 C147.98551542 415.69749983 149.65917639 415.69695001 151.33281326 415.70197678 C166.55073052 415.74192432 179.353573 414.08703729 191.17797852 403.66552734 C197.93262419 396.49733193 201.44909262 386.78140767 201.46844959 377.03642082 C201.47513636 375.46936057 201.47513636 375.46936057 201.48195821 373.87064254 C201.48177385 372.72931653 201.48158949 371.58799051 201.48139954 370.41207886 C201.48507622 369.1945858 201.48875291 367.97709275 201.49254102 366.72270596 C201.50165106 363.34615529 201.50627385 359.96965315 201.50893033 356.59309483 C201.51284062 352.95012218 201.52241839 349.30716352 201.53114319 345.66419983 C201.55088639 336.86823488 201.56097076 328.07226882 201.56987098 319.27628726 C201.5742571 315.13153902 201.57962304 310.98679206 201.58485985 306.84204483 C201.60186943 293.05987501 201.61636318 279.27770597 201.62360859 265.49552727 C201.6255184 261.92068353 201.62743875 258.3458398 201.62939453 254.77099609 C201.62987827 253.8825152 201.63036201 252.9940343 201.63086041 252.07862975 C201.63915921 237.68861786 201.66449479 223.29868914 201.69697521 208.90871356 C201.73006765 194.12680828 201.74805929 179.34494523 201.75125283 164.56300271 C201.75341582 156.26672018 201.76213368 147.97055896 201.787714 139.67431259 C201.80945082 132.60840432 201.81745678 125.54264685 201.80774722 118.47670893 C201.80321121 114.87426951 201.80504754 111.27214101 201.82450867 107.66974449 C201.84546483 103.75666102 201.83512712 99.84400268 201.82197571 95.93087769 C201.83294495 94.802936 201.8439142 93.67499431 201.85521585 92.51287258 C201.75764234 80.45557356 197.91914907 71.43406584 189.81469727 62.64208984 C181.0506753 54.24057 169.44670713 52.17675259 157.73297119 52.15008545 C156.99971202 52.14711433 156.26645284 52.1441432 155.51097369 52.14108205 C153.07086193 52.13245831 150.63079958 52.13089221 148.19067383 52.12939453 C146.4341115 52.12476191 144.67755017 52.11973666 142.92098999 52.11434937 C138.16048753 52.10126707 133.39999916 52.09478869 128.63948154 52.09033871 C125.6615359 52.08740154 122.68359405 52.08329555 119.70565033 52.07883453 C110.37725635 52.06517125 101.0488711 52.0554986 91.72046781 52.05163264 C80.9725163 52.04715314 70.22469205 52.02960529 59.47677922 52.00063205 C51.15466404 51.97898088 42.83258458 51.96892655 34.51044154 51.96759152 C29.54643397 51.96654606 24.5825462 51.96069326 19.61856842 51.94277191 C14.94652194 51.92623149 10.27468459 51.92416458 5.60261917 51.93291092 C3.89469211 51.93367808 2.18675351 51.9293813 0.47885513 51.91945267 C-14.71137511 51.83637378 -28.67231504 53.39522026 -39.54077148 65.16552734 Z " fill="#ffffff" transform="translate(1880.665771484375,1945.70947265625)"/>
<path d="M0 0 C6.21872189 4.11048095 11.52023445 9.6821486 16.87792969 14.82958984 C18.7481124 16.60784435 20.67057292 18.3150104 22.625 20 C25.77703227 22.72006211 28.86191528 25.50618672 31.9375 28.3125 C35.07833556 31.17721815 38.22850756 34.02435902 41.4375 36.8125 C45.61618079 40.44315708 49.69566304 44.17968576 53.78515625 47.91015625 C55.96210996 49.88191844 58.15588674 51.82615337 60.375 53.75 C63.7843858 56.7113351 67.1154431 59.75402486 70.4375 62.8125 C74.39612186 66.45664329 78.3892676 70.05163717 82.453125 73.578125 C86.49124691 77.10750714 90.45664681 80.71884226 94.4375 84.3125 C96.10390851 85.81278679 97.77057353 87.31278872 99.4375 88.8125 C101.96250493 91.0842129 104.48663304 93.35685414 107.0078125 95.6328125 C110.77487115 99.03122932 114.54665586 102.4206661 118.375 105.75 C122.57192081 109.40428862 126.6740276 113.15994973 130.78515625 116.91015625 C132.96210996 118.88191844 135.15588674 120.82615337 137.375 122.75 C140.78438643 125.71133565 144.11542243 128.75404669 147.4375 131.8125 C150.80301432 134.91027918 154.17768621 137.99306163 157.625 141 C158.24375 141.54398438 158.8625 142.08796875 159.5 142.6484375 C160.89473326 143.8463334 162.31481331 145.01494343 163.75 146.1640625 C170.21830877 151.5046727 174.55520904 156.80000444 175.91015625 165.265625 C176.27036298 172.46975954 174.85944075 178.53633989 170.4375 184.3125 C164.77138676 190.23402632 157.93657903 194.225505 150.87207031 198.24682617 C148.28761772 199.71802278 145.71457749 201.20870535 143.14059448 202.69812012 C141.81916256 203.4625327 140.49715971 204.22595916 139.17459106 204.98840332 C133.05037764 208.52189996 126.98907132 212.15611723 120.9375 215.8125 C111.87243187 221.27650668 102.76254813 226.65855962 93.625 232 C84.82287045 237.14603612 76.04111129 242.32174563 67.30761719 247.58374023 C58.14671818 253.09971185 48.94973766 258.5548042 39.75097656 264.00732422 C38.37564607 264.82258277 37.00032055 265.63784969 35.625 266.453125 C34.94379089 266.85689362 34.26258179 267.26066223 33.56072998 267.67666626 C29.54657901 270.05729519 25.53730698 272.44586119 21.53282166 274.8427124 C19.06420232 276.31996284 16.59373331 277.7941032 14.12307739 279.26794434 C12.42262886 280.28403959 10.72482403 281.30455503 9.02709961 282.32519531 C-7.31974271 292.06765278 -7.31974271 292.06765278 -17.5625 290.3125 C-22.52400786 288.48457605 -27.01418327 285.97445308 -31.5625 283.3125 C-32.2961377 282.88356445 -33.02977539 282.45462891 -33.78564453 282.01269531 C-38.85263895 279.02888072 -43.87874305 275.97975579 -48.90185547 272.92285156 C-53.28885098 270.26762836 -57.70685134 267.6654434 -62.125 265.0625 C-63.97663375 263.97017285 -65.82819453 262.87772201 -67.6796875 261.78515625 C-68.63198242 261.22328613 -69.58427734 260.66141602 -70.56542969 260.08251953 C-75.96382377 256.8943184 -81.35678642 253.69695413 -86.75 250.5 C-87.88252197 249.8287207 -89.01504395 249.15744141 -90.18188477 248.46582031 C-92.49026623 247.09754722 -94.79860929 245.72920937 -97.10693359 244.36083984 C-102.75840084 241.01073815 -108.4104973 237.6616982 -114.0625 234.3125 C-116.31250264 232.97917113 -118.56250264 231.64583779 -120.8125 230.3125 C-122.483125 229.3225 -122.483125 229.3225 -124.1875 228.3125 C-127.5625 226.3125 -130.9375 224.3125 -134.3125 222.3125 C-135.42761963 221.6517749 -136.54273926 220.9910498 -137.69165039 220.31030273 C-139.9281229 218.98481171 -142.16429135 217.65880754 -144.40014648 216.33227539 C-149.61457236 213.23938463 -154.83157051 210.15136072 -160.06008911 207.08236694 C-162.49734682 205.65132282 -164.93281517 204.21724852 -167.36816406 202.78295898 C-169.06272926 201.78661305 -170.75983391 200.79459003 -172.45703125 199.80273438 C-195.24957617 186.37141326 -195.24957617 186.37141326 -199.05078125 176.41796875 C-200.8404903 169.05420403 -200.3717349 161.65618937 -196.640625 155.01953125 C-191.77802099 148.68534971 -185.56189906 143.53964865 -179.5625 138.3125 C-178.78003906 137.62027344 -177.99757813 136.92804688 -177.19140625 136.21484375 C-175.97163903 135.14215865 -174.74664734 134.07537467 -173.515625 133.015625 C-170.99637724 130.81884095 -168.53147004 128.56560381 -166.0625 126.3125 C-162.29899479 122.87985239 -158.50120649 119.4969499 -154.65625 116.15625 C-151.1343753 113.05489765 -147.68172978 109.87736667 -144.21484375 106.71484375 C-142.03789004 104.74308156 -139.84411326 102.79884663 -137.625 100.875 C-134.2156142 97.9136649 -130.8845569 94.87097514 -127.5625 91.8125 C-123.60387814 88.16835671 -119.6107324 84.57336283 -115.546875 81.046875 C-111.50876738 77.51750535 -107.54275811 73.90679369 -103.5625 70.3125 C-94.0703125 61.74076705 -94.0703125 61.74076705 -89.6875 57.9375 C-86.25917808 54.95333314 -82.90629199 51.89061516 -79.5625 48.8125 C-75.60385351 45.16838284 -71.61073312 41.57336345 -67.546875 38.046875 C-63.50875309 34.51749286 -59.54335319 30.90615774 -55.5625 27.3125 C-53.06216546 25.06141999 -50.56106202 22.81120784 -48.05859375 20.5625 C-46.40027017 19.06767311 -44.74657559 17.5676942 -43.09765625 16.0625 C-16.4991903 -8.14084342 -16.4991903 -8.14084342 0 0 Z " fill="#0a0b10" transform="translate(1300.5625,1903.6875)"/>
<path d="M0 0 C31.51103371 -2.54028687 31.51103371 -2.54028687 40.9854126 5.32371521 C48.53733968 13.01484131 53.34625468 23.09036836 58.12207031 32.63845825 C62.93499314 42.24486303 68.86508272 50.90363658 75.01016235 59.69612122 C78.11917047 64.16772343 81.15311388 68.68951663 84.19049072 73.20994568 C84.79790604 74.11181107 85.40532135 75.01367645 86.03114319 75.94287109 C93.38284342 86.87091279 100.60703235 97.88285992 107.83547974 108.8926239 C118.45785509 125.06726224 129.23588055 141.13269397 140.0947876 157.1493988 C156.54595947 181.42569104 156.54595947 181.42569104 156.54595947 184.16697693 C157.20595947 184.16697693 157.86595947 184.16697693 158.54595947 184.16697693 C158.87019897 183.18773254 158.87019897 183.18773254 159.20098877 182.18870544 C161.03555921 178.06699945 163.51767279 174.53159901 166.06549072 170.81932068 C166.62705368 169.99227127 167.18861664 169.16522186 167.76719666 168.31311035 C168.98629775 166.51806318 170.20739064 164.72436749 171.43023682 162.93186951 C174.74689688 158.06858257 178.04709223 153.19415964 181.34674072 148.31932068 C182.0295108 147.31098175 182.71228088 146.30264282 183.41574097 145.26374817 C190.38328107 134.95762292 197.22147049 124.56813694 204.04595947 114.16697693 C214.19385755 98.70948529 224.4647871 83.34166527 234.83126831 68.03001404 C248.53794173 47.7774343 261.98704612 27.35694901 275.39964294 6.90879822 C276.44245445 5.32425221 277.49374688 3.74529582 278.54595947 2.16697693 C280.68466187 1.80621338 280.68466187 1.80621338 283.362854 1.82640076 C284.36374054 1.82662735 285.36462708 1.82685394 286.39584351 1.8270874 C288.0208931 1.85031319 288.0208931 1.85031319 289.67877197 1.87400818 C290.78574432 1.87825302 291.89271667 1.88249786 293.03323364 1.88687134 C296.57938657 1.90370479 300.12497744 1.94136613 303.67095947 1.97947693 C306.07069087 1.9945177 308.47043114 2.00820716 310.87017822 2.02049255 C316.76229806 2.05362355 322.65408862 2.10386916 328.54595947 2.16697693 C329.6094661 4.05064545 330.64609177 5.94950983 331.67095947 7.85447693 C332.2510376 8.91021912 332.83111572 9.9659613 333.42877197 11.05369568 C334.54595947 14.16697693 334.54595947 14.16697693 333.98760986 16.66209412 C332.22970955 19.71646452 330.35389117 22.65815287 328.35455322 25.55760193 C327.93756668 26.17052094 327.52058014 26.78343994 327.09095764 27.41493225 C325.7262353 29.41868612 324.35488105 31.41780367 322.98345947 33.41697693 C322.02759734 34.81786863 321.07219877 36.21907673 320.11724854 37.62059021 C318.18231405 40.45899129 316.24489511 43.29566909 314.30523682 46.13084412 C311.14571766 50.75006249 308.00041693 55.37883895 304.85626221 60.00852966 C302.79353795 63.04554221 300.72867951 66.08109253 298.66314697 69.11619568 C295.85476401 73.24305887 293.04749839 77.37067824 290.24127197 81.49900818 C282.90375062 92.29328056 275.5599479 103.08320663 268.20513916 113.8657074 C261.36091137 123.90138526 254.53212084 133.94754947 247.70318604 143.99363708 C243.44481683 150.25781578 239.18521569 156.52115681 234.92584229 162.78465271 C231.35870027 168.03030494 227.79186285 173.27616377 224.22564697 178.52244568 C222.79077257 180.63313733 221.35587687 182.7438145 219.92095947 184.85447693 C219.2225293 185.88185974 218.52409912 186.90924255 217.80450439 187.96775818 C214.32492848 193.08490065 210.84248973 198.20006014 207.35455322 203.31150818 C206.68182373 204.29739929 206.00909424 205.28329041 205.315979 206.29905701 C204.05830001 208.14165556 202.8001978 209.98396535 201.54156494 211.82591248 C197.83969482 217.24886422 194.17610178 222.69574538 190.54595947 228.16697693 C193.70799148 234.11544758 197.14970998 239.65831699 201.10845947 245.10447693 C205.20966244 250.83279102 209.22206393 256.60326308 213.10845947 262.47947693 C218.22258555 270.20286847 223.40282366 277.88007518 228.60845947 285.54197693 C229.01210724 286.13620453 229.415755 286.73043213 229.83163452 287.34266663 C231.90672073 290.39734771 233.98230521 293.45168972 236.0581665 296.50584412 C239.66357269 301.81090407 243.26443159 307.11904896 246.86550903 312.42704773 C248.84212768 315.34049193 250.81905988 318.25372335 252.79595947 321.16697693 C253.58762763 322.33364258 254.3792943 323.50030925 255.17095947 324.66697693 C255.56283447 325.24447693 255.95470947 325.82197693 256.35845947 326.41697693 C297.92095943 387.66697687 297.92095943 387.66697687 299.10832214 389.41677856 C299.9004416 390.58410982 300.69256603 391.7514377 301.48469543 392.91876221 C303.45697515 395.82523304 305.42916991 398.73176146 307.40118408 401.63841248 C310.62171551 406.3851499 313.84233844 411.13182283 317.065979 415.87644958 C317.4861026 416.49484711 317.9062262 417.11324463 318.33908081 417.75038147 C319.18493256 418.99504433 320.0311014 420.23949176 320.87759399 421.48371887 C322.92775926 424.4984803 324.9716639 427.51707951 327.0010376 430.54588318 C330.26274077 435.40507133 333.52633398 440.22450523 337.13580322 444.83494568 C339.73243821 448.20958166 341.98778808 451.18003681 343.54595947 455.16697693 C342.86513793 460.07978516 341.11803311 464.59490329 337.54595947 468.16697693 C336.02488687 468.31739126 334.49704997 468.40019768 332.96954346 468.45506287 C331.99440292 468.49049194 331.01926239 468.52592102 330.01457214 468.56242371 C325.52594916 468.68629118 321.03745316 468.77706018 316.54766846 468.84666443 C314.18353334 468.89330262 311.81971862 468.96144802 309.45684814 469.05174255 C290.15137619 469.77703399 290.15137619 469.77703399 284.6350708 466.3681488 C282.89737285 464.02773477 281.65003765 461.7387286 280.47634888 459.07627869 C278.55471648 455.13279427 275.90032885 451.60114468 273.44049072 447.97947693 C272.29239185 446.23637882 271.14796841 444.4908553 270.00689697 442.7431488 C258.81285675 425.63134669 247.51224703 408.59752217 236.04595947 391.66697693 C225.66519928 376.33509052 215.4190863 360.9209923 205.25762939 345.44297791 C194.57701813 329.1794195 183.73817863 313.02672705 172.8213501 296.92088318 C172.23591431 296.05630493 171.65047852 295.19172668 171.04730225 294.3009491 C169.96410838 292.70176035 168.8796651 291.10341676 167.79364014 289.50614929 C164.93213175 285.28218103 162.20576013 281.01891652 159.63067627 276.61320496 C159.27271973 276.13594971 158.91476318 275.65869446 158.54595947 275.16697693 C157.88595947 275.16697693 157.22595947 275.16697693 156.54595947 275.16697693 C155.31179885 276.5992165 155.31179885 276.5992165 154.11700439 278.52366638 C153.62898849 279.2675209 153.1409726 280.01137543 152.63816833 280.777771 C152.1062941 281.60359177 151.57441986 282.42941254 151.02642822 283.28025818 C150.46486526 284.13931259 149.90330231 284.998367 149.32472229 285.88345337 C148.1007968 287.75682361 146.87992126 289.63218907 145.66168213 291.50926208 C142.37107235 296.5780844 139.05731265 301.63173506 135.74517822 306.68650818 C135.06240814 307.72957123 134.37963806 308.77263428 133.67617798 309.8473053 C126.89794082 320.18757678 119.98281231 330.4327445 113.04595947 340.66697693 C103.2728326 355.09823822 93.6126321 369.59806447 84.04595947 384.16697693 C71.32283185 403.54222133 58.40088235 422.77793519 45.40310669 441.96977234 C40.97160794 448.51976851 36.58223433 455.09735004 32.2162323 461.69117737 C31.74762283 462.39717072 31.27901337 463.10316406 30.79620361 463.83055115 C30.38423233 464.45291656 29.97226105 465.07528198 29.54780579 465.71650696 C28.54595947 467.16697693 28.54595947 467.16697693 27.54595947 468.16697693 C25.98048899 468.26024409 24.41083175 468.28443275 22.84259033 468.28050232 C21.84162827 468.28042679 20.8406662 468.28035126 19.80937195 468.28027344 C18.72084427 468.27511215 17.63231659 468.26995087 16.51080322 468.26463318 C15.40241592 468.26321823 14.29402863 468.26180328 13.15205383 468.26034546 C9.59582878 468.25472726 6.03966564 468.24217168 2.48345947 468.22947693 C0.0791635 468.22446427 -2.32513345 468.21990096 -4.72943115 468.21580505 C-10.63765557 468.20475192 -16.54584363 468.18799609 -22.45404053 468.16697693 C-23.50686855 466.2724495 -24.53634483 464.36493053 -25.55560303 462.45213318 C-26.13133057 461.39131531 -26.70705811 460.33049744 -27.30023193 459.23753357 C-28.45404053 456.16697693 -28.45404053 456.16697693 -27.92059326 453.63011169 C-26.64155359 451.25655049 -25.14685923 449.26563337 -23.45404053 447.16697693 C-22.26340442 445.52341091 -21.07614077 443.87739861 -19.89154053 442.22947693 C-19.19544678 441.29103943 -18.49935303 440.35260193 -17.78216553 439.38572693 C-15.13644923 435.72789098 -12.63177904 431.99405688 -10.14154053 428.22947693 C-4.94370218 420.38131407 0.31815569 412.57800143 5.60845947 404.79197693 C6.01174469 404.19829315 6.41502991 403.60460938 6.83053589 402.99293518 C8.90599039 399.9377062 10.98193276 396.88280921 13.0581665 393.82810974 C16.66357269 388.52304979 20.26443159 383.2149049 23.86550903 377.90690613 C25.84212768 374.99346192 27.81905988 372.0802305 29.79595947 369.16697693 C30.58762763 368.00031127 31.3792943 366.83364461 32.17095947 365.66697693 C46.42095947 344.66697693 60.67095947 323.66697693 74.92095947 302.66697693 C75.3128093 302.08951218 75.70465912 301.51204742 76.10838318 300.91708374 C76.90029719 299.75005631 77.69221818 298.58303361 78.48414612 297.41601562 C80.45958543 294.50490733 82.4349048 291.59371779 84.40997314 288.68235779 C88.01672456 283.36606511 91.6244616 278.0504524 95.23649597 272.73774719 C105.0783953 258.26175552 114.87194699 243.75603124 124.54595947 229.16697693 C121.61296858 223.68640787 118.54309586 218.54821017 114.85845947 213.54197693 C111.46522483 208.87541255 108.16263219 204.16947608 104.98345947 199.35447693 C100.49575857 192.56746573 95.93677472 185.83068162 91.35845947 179.10447693 C90.62554688 178.02770691 89.89263428 176.95093689 89.13751221 175.84153748 C83.8309084 168.0487895 78.51942526 160.25936458 73.20684814 152.47068787 C66.36195007 142.43426491 59.53267917 132.38722574 52.70318604 122.34031677 C49.15135593 117.11547661 45.59862716 111.89124759 42.04595947 106.66697693 C37.77206673 100.38213004 33.49837619 94.09714617 29.22564697 87.81150818 C22.50528592 77.92575968 15.78184332 68.04215671 9.04595947 58.16697693 C3.85661665 50.55878376 -1.32853552 42.94775061 -6.50823975 35.33299255 C-7.61239282 33.7098257 -8.71680689 32.0868364 -9.82122803 30.46385193 C-11.14093326 28.5232568 -12.45676422 26.58001834 -13.76776123 24.63352966 C-14.77279837 23.16344276 -15.79836847 21.70658204 -16.8649292 20.28050232 C-18.57119731 17.97257894 -19.49077413 16.71260527 -19.29388428 13.78807068 C-18.99611084 13.06748474 -18.6983374 12.3468988 -18.39154053 11.60447693 C-17.97195068 10.51973083 -17.97195068 10.51973083 -17.54388428 9.41307068 C-17.18423584 8.67185974 -16.8245874 7.9306488 -16.45404053 7.16697693 C-16.14933838 6.33400085 -15.84463623 5.50102478 -15.53070068 4.64280701 C-11.67631892 0.04754655 -5.67536943 0.55639199 0 0 Z " fill="#ffffff" transform="translate(3126.4540405273438,1943.833023071289)"/>
<path d="M0 0 C3.05962535 1.5738373 5.96094407 3.36057029 8.875 5.1875 C10.64128655 6.27057652 12.40825057 7.35254877 14.17578125 8.43359375 C15.11502441 9.01093262 16.05426758 9.58827148 17.02197266 10.18310547 C22.33688468 13.42573338 27.70207557 16.58338891 33.0625 19.75 C34.79385503 20.77454222 36.52495491 21.79951462 38.25604248 22.82450867 C40.00795058 23.86176955 41.76006133 24.89868742 43.51220703 25.93554688 C49.17634186 29.28776978 54.83799165 32.64418719 60.5 36 C62.74998942 37.33335119 64.99998943 38.6666845 67.25 40 C71.75 42.66666667 76.25 45.33333333 80.75 48 C81.86391113 48.66008057 82.97782227 49.32016113 84.12548828 50.00024414 C86.37391356 51.33267443 88.62228602 52.66519387 90.87060547 53.99780273 C97.65574144 58.01926095 104.44289893 62.03728028 111.23144531 66.05297852 C114.59115059 68.04245579 117.94809721 70.03652271 121.3046875 72.03125 C125.2807341 74.3933041 129.2638309 76.742142 133.25875854 79.07203674 C136.09358859 80.7280082 138.92088863 82.39678298 141.75 84.0625 C142.77947754 84.65748291 143.80895508 85.25246582 144.86962891 85.86547852 C152.82258678 90.57158661 159.43625539 95.21488225 163 104 C163.43781198 107.49637559 163.41347953 110.9667692 163.39440918 114.48687744 C163.40050028 115.54258839 163.40659139 116.59829935 163.41286707 117.68600154 C163.42951541 121.22339424 163.42471847 124.76042771 163.41992188 128.29785156 C163.4272612 130.83420689 163.43584703 133.37055888 163.44558716 135.90690613 C163.46551796 142.08175373 163.4711828 148.25646918 163.46939927 154.4313446 C163.46809067 159.45258065 163.47190083 164.47378745 163.47932434 169.49501801 C163.48142359 170.94246634 163.48352119 172.38991467 163.48561716 173.837363 C163.48666069 174.55785527 163.48770422 175.27834753 163.48877937 176.02067289 C163.50767658 189.64346646 163.50663342 203.26620617 163.49981004 216.88900742 C163.49423757 229.33971823 163.51504821 241.79022308 163.54817051 254.24088576 C163.58194171 267.03514212 163.5970714 279.82929993 163.59245348 292.62360168 C163.59021191 299.80259291 163.59540572 306.98139391 163.62034607 314.16034698 C163.64360938 320.91395652 163.64073486 327.66706826 163.62041855 334.42070961 C163.61700833 336.89663081 163.62209798 339.37258083 163.63640213 341.84846306 C163.65461164 345.23453577 163.64183071 348.61915844 163.62145996 352.00518799 C163.63397781 352.97972246 163.64649566 353.95425694 163.65939283 354.95832276 C163.56412854 362.36951657 161.62018763 369.02997996 156.52195883 374.62086987 C150.74531846 379.61817899 145.44057706 382.08825801 137.875 382.375 C137.00617188 382.42398438 136.13734375 382.47296875 135.2421875 382.5234375 C123.44281387 380.61847838 115.84443759 371.54478146 107.84887695 363.46411133 C106.45095852 362.06969845 105.05196214 360.67636553 103.65197754 359.2840271 C99.87001299 355.51625862 96.10380993 351.73309514 92.34072137 347.94648576 C88.38964937 343.97523483 84.42551839 340.01705707 80.46318054 336.05705261 C73.81144844 329.405267 67.16961763 322.74372245 60.53393555 316.07592773 C52.87732562 308.3824435 45.20677299 300.70308843 37.52821952 293.03150922 C30.12390682 285.63351665 22.72818512 278.22699658 15.33678246 270.8161068 C12.19952978 267.67070912 9.05959285 264.5280283 5.91747475 261.38749123 C2.21270894 257.68360874 -1.48435726 253.97220196 -5.17577362 250.25501633 C-6.52641794 248.89725077 -7.8795603 247.54196455 -9.23546028 246.1894474 C-18.41781158 237.02562913 -26.26410279 227.92264646 -32.25 216.3125 C-32.73726562 215.39500977 -32.73726562 215.39500977 -33.234375 214.45898438 C-36.89588745 207.4829173 -39.50865754 200.70672087 -41.125 193 C-41.29386719 192.23171875 -41.46273438 191.4634375 -41.63671875 190.671875 C-43.23066199 183.2920433 -44.16994301 176.13469125 -44.12426758 168.56738281 C-44.12134358 167.71458363 -44.11841959 166.86178444 -44.11540699 165.98314285 C-44.02373773 153.03981582 -43.53522047 140.10242752 -43.08914924 127.16742992 C-43.01091359 124.89852452 -42.93334031 122.62959724 -42.85590553 120.36066437 C-42.61222682 113.23254508 -42.36534072 106.10454638 -42.11424989 98.97668433 C-41.82620813 90.7971019 -41.54958147 82.61723356 -41.28234261 74.43694568 C-41.0735873 68.0692463 -40.85440611 61.70195772 -40.62743026 55.33488202 C-40.49271805 51.54902679 -40.36239811 47.76314568 -40.24316978 43.97676849 C-40.13113614 40.42694994 -40.00612293 36.87781943 -39.87133026 33.32879448 C-39.80199216 31.41760912 -39.7460359 29.50595273 -39.69056702 27.59431458 C-39.30861088 18.07193246 -37.75771765 10.94663939 -31.078125 3.83203125 C-21.43071217 -4.6729248 -11.40247206 -4.64627599 0 0 Z " fill="#0a0b10" transform="translate(1108,2130)"/>
<path d="M0 0 C7.39779247 5.179715 10.35969337 10.93323098 12.29296875 19.60546875 C12.73141443 23.82466163 12.78101114 28.01808675 12.8046875 32.2578125 C12.82277466 33.50671768 12.84086182 34.75562286 12.85949707 36.04237366 C12.90813267 39.48626312 12.93780322 42.93007606 12.96313095 46.37420654 C12.9864916 49.29635936 13.01970748 52.21837193 13.05243397 55.14043236 C13.16167888 65.03236716 13.22559361 74.92441613 13.27807617 84.81679535 C13.29346354 87.69811894 13.30978705 90.57943632 13.32617188 93.46075439 C13.40044486 106.82470425 13.44665765 120.18856678 13.47330093 133.55269241 C13.4804471 136.59624683 13.49075667 139.63977654 13.50180054 142.68331909 C13.51852505 147.52068279 13.52444091 152.35795009 13.52235413 157.19534111 C13.52306494 158.98168841 13.52710288 160.76803814 13.5348053 162.55436897 C13.65986687 193.75413376 3.63107395 220.15392753 -18.52735901 242.58691406 C-21.44681929 245.50474146 -24.3860821 248.40191555 -27.33203125 251.29296875 C-29.1275306 253.06054997 -30.92139157 254.82972125 -32.71224976 256.602005 C-33.814686 257.69248947 -34.91977446 258.78030311 -36.02822876 259.8646698 C-38.83390973 262.63449109 -41.49224581 265.47465528 -44.06591797 268.4621582 C-47.92172485 272.91758716 -52.05043556 277.05763271 -56.23828125 281.19921875 C-57.03302856 281.99017944 -57.82777588 282.78114014 -58.64660645 283.59606934 C-62.01238673 286.94565448 -65.38414173 290.28920145 -68.75537109 293.63330078 C-71.23093352 296.09067814 -73.70341208 298.55112933 -76.17578125 301.01171875 C-76.92702271 301.75466187 -77.67826416 302.49760498 -78.45227051 303.26306152 C-81.81919318 306.61448671 -85.09260996 309.99146996 -88.19335938 313.59179688 C-92.0670742 318.08735866 -96.24006114 322.24626208 -100.45703125 326.41796875 C-101.68244629 327.63770386 -101.68244629 327.63770386 -102.93261719 328.88208008 C-106.39398167 332.32724215 -109.86131716 335.76637165 -113.328125 339.20605469 C-115.87318313 341.73293383 -118.41516256 344.2628819 -120.95703125 346.79296875 C-122.1167041 347.94019409 -122.1167041 347.94019409 -123.29980469 349.1105957 C-127.44669738 353.23891887 -131.42295032 357.45132205 -135.23391724 361.89253235 C-148.86813512 377.74639559 -148.86813512 377.74639559 -158.87890625 379.00390625 C-168.94447023 379.30540932 -175.17756277 377.28077108 -182.84765625 370.91015625 C-188.24360333 364.22190251 -189.293139 357.31669129 -189.21496582 348.94764709 C-189.22120578 347.90979063 -189.22744575 346.87193416 -189.2338748 345.8026275 C-189.24976127 342.34352535 -189.23721702 338.88513211 -189.22460938 335.42602539 C-189.23003243 332.93848766 -189.23715611 330.45095314 -189.24584961 327.96342468 C-189.26217498 321.91927136 -189.2598139 315.87539366 -189.24819905 309.83125121 C-189.23914724 304.91639393 -189.23794826 300.00159228 -189.24229431 295.08672905 C-189.24290724 294.38589393 -189.24352018 293.68505882 -189.24415168 292.96298627 C-189.24543065 291.53901937 -189.24672751 290.11505249 -189.24804205 288.69108563 C-189.25943554 275.35295658 -189.24635396 262.01493768 -189.22484058 248.67682671 C-189.2069746 237.24649142 -189.21007191 225.81631868 -189.22851562 214.38598633 C-189.24995091 201.09552746 -189.2583329 187.80516504 -189.24606657 174.51469129 C-189.24479245 173.09580228 -189.24353496 171.67691326 -189.24229431 170.25802422 C-189.24167721 169.56000222 -189.24106011 168.86198022 -189.24042431 168.14280604 C-189.23697907 163.23766248 -189.24278194 158.3325804 -189.25221252 153.42744637 C-189.26464202 146.81749763 -189.25571595 140.20780737 -189.2326355 133.59787178 C-189.22735667 131.17517098 -189.22884796 128.75244431 -189.23768616 126.32975388 C-189.24865751 123.0162487 -189.23485752 119.70371759 -189.21496582 116.39027405 C-189.22388871 115.43724067 -189.23281159 114.4842073 -189.24200487 113.50229412 C-189.15861792 106.31440798 -187.81224517 99.27541347 -183.04837084 93.64515549 C-177.56807609 88.33602174 -170.54782716 84.72523326 -163.98242188 80.92578125 C-159.75031264 78.47006808 -155.5436735 75.97105951 -151.33203125 73.48046875 C-150.40124756 72.93148926 -149.47046387 72.38250977 -148.51147461 71.81689453 C-141.53411008 67.69881539 -134.58567155 63.5342455 -127.64453125 59.35546875 C-117.81330256 53.4394743 -107.93100421 47.61581879 -98.02557373 41.82543945 C-89.61706677 36.90934811 -81.23565287 31.95194079 -72.89379883 26.92333984 C-65.89333229 22.7058427 -58.85547 18.55323783 -51.80859375 14.41381836 C-47.36164877 11.7942601 -42.93958846 9.1450993 -38.5625 6.41015625 C-37.75248535 5.90556885 -36.9424707 5.40098145 -36.10791016 4.88110352 C-34.60156169 3.93857414 -33.09955128 2.98905775 -31.60302734 2.03100586 C-21.54802645 -4.25726466 -10.59297742 -6.01223043 0 0 Z " fill="#0a0b10" transform="translate(1494.70703125,2131.39453125)"/>
<path d="M0 0 C1.04269043 -0.01098221 2.08538086 -0.02196442 3.15966797 -0.03327942 C5.35840526 -0.04375929 7.55735457 -0.03145003 9.75585938 0.00219727 C13.11758089 0.04287897 16.46709886 -0.01774619 19.828125 -0.08789062 C21.96876544 -0.08553763 24.10940924 -0.07727218 26.25 -0.0625 C27.25015137 -0.08587936 28.25030273 -0.10925873 29.28076172 -0.13334656 C32.20703284 -0.04537619 34.39964464 0.15169187 37.125 1.23046875 C39.85890876 4.24103817 41.45142777 7.54964851 43.125 11.23046875 C43.79939083 12.47679317 44.4820183 13.71873004 45.17626953 14.95410156 C45.78067871 16.10233398 46.38508789 17.25056641 47.0078125 18.43359375 C47.34393555 19.06974609 47.68005859 19.70589844 48.02636719 20.36132812 C48.73733162 21.70728107 49.447137 23.05384684 50.15582275 24.40100098 C52.03507502 27.97249228 53.92389912 31.53891454 55.8125 35.10546875 C56.37301559 36.16450409 56.37301559 36.16450409 56.94485474 37.24493408 C60.00213089 43.01460533 63.10974149 48.75551924 66.25 54.48046875 C70.71357885 62.622282 75.12090478 70.79291344 79.5 78.98046875 C79.81615265 79.57152405 80.1323053 80.16257935 80.45803833 80.77154541 C80.7742514 81.36272156 81.09046448 81.95389771 81.41625977 82.56298828 C82.05484198 83.75684037 82.69343247 84.95068802 83.33203125 86.14453125 C83.64834 86.73589874 83.96464874 87.32726624 84.2905426 87.93655396 C87.57868235 94.0820365 90.88171237 100.2194662 94.1875 106.35546875 C94.76097168 107.41991211 95.33444336 108.48435547 95.92529297 109.58105469 C97.08048805 111.72497712 98.23576131 113.86885743 99.39111328 116.01269531 C102.30370265 121.41792312 105.2142423 126.82425443 108.125 132.23046875 C109.29165696 134.39714064 110.45832363 136.56380731 111.625 138.73046875 C118.625 151.73046875 118.625 151.73046875 120.37524414 154.98095703 C121.54105818 157.146017 122.706911 159.31105609 123.87280273 161.47607422 C126.80283422 166.91715211 129.73217526 172.35859963 132.66015625 177.80078125 C138.44728189 188.55560943 144.24381108 199.30517976 150.0625 210.04296875 C150.87025879 211.53521973 150.87025879 211.53521973 151.69433594 213.05761719 C153.95110679 217.22580671 156.2105502 221.39223708 158.4921875 225.546875 C158.82871338 226.16264404 159.16523926 226.77841309 159.51196289 227.4128418 C160.35533414 228.95520341 161.20283619 230.49530445 162.05078125 232.03515625 C163.125 234.23046875 163.125 234.23046875 163.125 236.23046875 C163.785 236.23046875 164.445 236.23046875 165.125 236.23046875 C165.38297363 235.38097656 165.64094727 234.53148438 165.90673828 233.65625 C167.1870815 230.05589409 168.807808 226.76977751 170.6171875 223.41796875 C170.95897034 222.77615662 171.30075317 222.13434448 171.65289307 221.4730835 C172.76399356 219.38971522 173.88183272 217.31005145 175 215.23046875 C175.77748568 213.77653008 176.55466402 212.32242702 177.33154297 210.86816406 C182.06561393 202.01726831 186.84581995 193.19180965 191.66992188 184.38964844 C195.6573289 177.11006071 199.58539778 169.79941955 203.5 162.48046875 C204.13802083 161.28776042 204.77604167 160.09505208 205.4140625 158.90234375 C205.7299231 158.31187256 206.04578369 157.72140137 206.37121582 157.11303711 C206.68699585 156.52272705 207.00277588 155.93241699 207.328125 155.32421875 C207.64422729 154.73326416 207.96032959 154.14230957 208.28601074 153.53344727 C216.55229868 138.08372655 224.88203526 122.66815231 233.2331543 107.26416016 C238.96297106 96.69176879 244.66138725 86.10252733 250.35888672 75.51269531 C253.85948278 69.00702578 257.36238205 62.50259558 260.8659668 55.99853516 C263.83616953 50.48404869 266.80346236 44.96802872 269.765625 39.44921875 C275.11020187 29.49667807 280.46247488 19.54952546 285.9375 9.66796875 C286.35225586 8.91773438 286.76701172 8.1675 287.19433594 7.39453125 C290.00114196 2.35432679 290.00114196 2.35432679 291.125 1.23046875 C292.59002253 1.08030801 294.06201829 0.99731479 295.53369141 0.94238281 C296.47201813 0.90695374 297.41034485 0.87152466 298.37710571 0.83502197 C302.69228919 0.71121267 307.00734058 0.62041047 311.32373047 0.55078125 C313.5977167 0.50411544 315.87136881 0.4359431 318.14404297 0.34570312 C336.95334626 -0.38858577 336.95334626 -0.38858577 342.24511719 3.55664062 C344.77561046 7.30021189 346.29603486 10.17006751 345.91577148 14.75097656 C345.00810631 17.59699309 343.81333776 20.04191531 342.38671875 22.66796875 C341.5359375 24.24276001 341.5359375 24.24276001 340.66796875 25.84936523 C339.74951172 27.52301147 339.74951172 27.52301147 338.8125 29.23046875 C338.18601562 30.38297119 337.55953125 31.53547363 336.9140625 32.72290039 C332.01624352 41.71247679 326.96973739 50.61533819 321.84375 59.4765625 C316.7501126 68.32603041 311.99977829 77.34856545 307.3125 86.41796875 C303.59477778 93.5738423 299.82077867 100.68019131 295.83178711 107.68823242 C291.95436414 114.50327745 288.16225519 121.36505301 284.375 128.23046875 C284.02911835 128.85715454 283.68323669 129.48384033 283.32687378 130.1295166 C278.11709756 139.57220761 272.97120131 149.04786566 267.85522461 158.54174805 C263.60563747 166.40219891 259.20999678 174.17437411 254.78833008 181.93896484 C251.0283592 188.56630488 247.44123325 195.26544651 243.93286133 202.02856445 C240.11406524 209.34747569 236.03234588 216.50861256 231.94360352 223.67919922 C228.5329021 229.68119019 225.24021022 235.727212 222.0625 241.85546875 C217.55050216 250.55374185 212.71041681 259.04504852 207.8203125 267.53515625 C205.32153016 271.87496586 202.86205841 276.2314881 200.53897285 280.66847515 C199.125 283.23046875 199.125 283.23046875 197.58332634 285.51057911 C192.20415627 293.89665318 192.27457235 301.77362733 192.35205078 311.36010742 C192.34386666 313.06615592 192.33305661 314.77219352 192.31983948 316.47821045 C192.29155245 321.07888037 192.29970597 325.67883003 192.31470728 330.27953506 C192.32412327 335.09889184 192.29960355 339.9180771 192.27877808 344.73738098 C192.24450954 353.84960959 192.2404897 362.96158698 192.24750316 372.07386714 C192.25400703 382.45368625 192.22653735 392.83333001 192.19630075 403.21309698 C192.13489557 424.55229349 192.12035619 445.89117734 192.125 467.23046875 C173.645 467.23046875 155.165 467.23046875 136.125 467.23046875 C136.14183838 462.07357422 136.15867676 456.91667969 136.17602539 451.60351562 C136.22518863 434.53236137 136.22521121 417.46146536 136.20015812 400.39026642 C136.18616555 390.04367633 136.18875568 379.69759944 136.23120117 369.35107422 C136.26817966 360.32671184 136.27321175 351.30297546 136.24082941 342.27858591 C136.22479317 337.5056488 136.22411038 332.73388486 136.26176643 327.96104431 C136.29680369 323.45588688 136.28868638 318.9527438 136.24937057 314.44764137 C136.24230665 312.80632103 136.25017142 311.16484695 136.27522469 309.52370262 C136.44375401 297.6631653 133.74200577 289.8925741 127.24335468 279.9848547 C125.50104315 277.25165483 124.01222069 274.40934973 122.5 271.54296875 C121.6654126 269.98400879 121.6654126 269.98400879 120.81396484 268.39355469 C120.25660645 267.34973633 119.69924805 266.30591797 119.125 265.23046875 C114.97362272 257.48730076 110.78731025 249.77206862 106.45043945 242.13134766 C103.34698083 236.65381798 100.32349648 231.13429786 97.3125 225.60546875 C96.81008789 224.68314453 96.30767578 223.76082031 95.79003906 222.81054688 C93.1560843 217.97130385 90.52776615 213.12903276 87.90234375 208.28515625 C87.37423096 207.31271973 86.84611816 206.3402832 86.30200195 205.33837891 C85.30254204 203.4979388 84.30484342 201.65654057 83.30932617 199.81396484 C80.50067833 194.64487333 77.56953794 189.57700226 74.48999023 184.56420898 C73.05348212 182.10819376 71.79617481 179.60618163 70.5625 177.04296875 C67.68580971 171.17808855 64.49104832 165.52596685 61.25 159.85546875 C55.95819321 150.58611975 50.87310689 141.2224805 45.875 131.79296875 C41.50380245 123.54842574 37.12016157 115.3212366 32.49291992 107.21655273 C28.95121661 100.98706138 25.57495111 94.66981422 22.1875 88.35546875 C17.05329931 78.78981407 11.8548907 69.26631055 6.55615234 59.79101562 C1.62310899 50.96505884 -3.28708966 42.12669419 -8.18066406 33.27880859 C-9.65556177 30.62526784 -11.14743725 27.98256906 -12.6484375 25.34375 C-13.39108572 24.01458023 -14.1333216 22.68517993 -14.875 21.35546875 C-15.49375 20.26492188 -16.1125 19.174375 -16.75 18.05078125 C-18.32464901 14.10322367 -17.48201936 11.65600001 -15.84716797 7.81669617 C-11.67722015 0.67129336 -8.00932317 -0.12077052 0 0 Z " fill="#ffffff" transform="translate(2697.875,1944.76953125)"/>
</svg>
